<?xml version="1.0" encoding="UTF-8" standalone="no"?>
<!DOCTYPE svg PUBLIC "-//W3C//DTD SVG 1.1//EN"
 "http://www.w3.org/Graphics/SVG/1.1/DTD/svg11.dtd">
<!-- Generated by graphviz version 2.43.0 (0)
 -->
<!-- Title: %3 Pages: 1 -->
<svg width="659pt" height="404pt"
 viewBox="0.00 0.00 658.76 404.00" xmlns="http://www.w3.org/2000/svg" xmlns:xlink="http://www.w3.org/1999/xlink">
<g id="graph0" class="graph" transform="scale(1 1) rotate(0) translate(4 400)">
<title>%3</title>
<polygon fill="white" stroke="transparent" points="-4,4 -4,-400 654.76,-400 654.76,4 -4,4"/>
<!-- [root] aws_eip.lb (expand) -->
<g id="node1" class="node">
<title>[root] aws_eip.lb (expand)</title>
<polygon fill="none" stroke="black" points="370.88,-180 279.88,-180 279.88,-144 370.88,-144 370.88,-180"/>
<text text-anchor="middle" x="325.38" y="-158.3" font-family="Times,serif" font-size="14.00">aws_eip.lb</text>
</g>
<!-- [root] aws_instance.myec2 (expand) -->
<g id="node2" class="node">
<title>[root] aws_instance.myec2 (expand)</title>
<polygon fill="none" stroke="black" points="406.38,-108 244.38,-108 244.38,-72 406.38,-72 406.38,-108"/>
<text text-anchor="middle" x="325.38" y="-86.3" font-family="Times,serif" font-size="14.00">aws_instance.myec2</text>
</g>
<!-- [root] aws_eip.lb (expand)&#45;&gt;[root] aws_instance.myec2 (expand) -->
<g id="edge1" class="edge">
<title>[root] aws_eip.lb (expand)&#45;&gt;[root] aws_instance.myec2 (expand)</title>
<path fill="none" stroke="black" d="M325.38,-143.7C325.38,-135.98 325.38,-126.71 325.38,-118.11"/>
<polygon fill="black" stroke="black" points="328.88,-118.1 325.38,-108.1 321.88,-118.1 328.88,-118.1"/>
</g>
<!-- [root] provider[&quot;registry.terraform.io/hashicorp/aws&quot;] -->
<g id="node4" class="node">
<title>[root] provider[&quot;registry.terraform.io/hashicorp/aws&quot;]</title>
<polygon fill="none" stroke="black" points="325.38,-36 0.12,-18 325.38,0 650.65,-18 325.38,-36"/>
<text text-anchor="middle" x="325.38" y="-14.3" font-family="Times,serif" font-size="14.00">provider[&quot;registry.terraform.io/hashicorp/aws&quot;]</text>
</g>
<!-- [root] aws_instance.myec2 (expand)&#45;&gt;[root] provider[&quot;registry.terraform.io/hashicorp/aws&quot;] -->
<g id="edge2" class="edge">
<title>[root] aws_instance.myec2 (expand)&#45;&gt;[root] provider[&quot;registry.terraform.io/hashicorp/aws&quot;]</title>
<path fill="none" stroke="black" d="M325.38,-71.7C325.38,-63.98 325.38,-54.71 325.38,-46.11"/>
<polygon fill="black" stroke="black" points="328.88,-46.1 325.38,-36.1 321.88,-46.1 328.88,-46.1"/>
</g>
<!-- [root] aws_security_group.allow_tls (expand) -->
<g id="node3" class="node">
<title>[root] aws_security_group.allow_tls (expand)</title>
<polygon fill="none" stroke="black" points="437.38,-252 213.38,-252 213.38,-216 437.38,-216 437.38,-252"/>
<text text-anchor="middle" x="325.38" y="-230.3" font-family="Times,serif" font-size="14.00">aws_security_group.allow_tls</text>
</g>
<!-- [root] aws_security_group.allow_tls (expand)&#45;&gt;[root] aws_eip.lb (expand) -->
<g id="edge3" class="edge">
<title>[root] aws_security_group.allow_tls (expand)&#45;&gt;[root] aws_eip.lb (expand)</title>
<path fill="none" stroke="black" d="M325.38,-215.7C325.38,-207.98 325.38,-198.71 325.38,-190.11"/>
<polygon fill="black" stroke="black" points="328.88,-190.1 325.38,-180.1 321.88,-190.1 328.88,-190.1"/>
</g>
<!-- [root] provider[&quot;registry.terraform.io/hashicorp/aws&quot;] (close) -->
<g id="node5" class="node">
<title>[root] provider[&quot;registry.terraform.io/hashicorp/aws&quot;] (close)</title>
<ellipse fill="none" stroke="black" cx="325.38" cy="-306" rx="291.65" ry="18"/>
<text text-anchor="middle" x="325.38" y="-302.3" font-family="Times,serif" font-size="14.00">[root] provider[&quot;registry.terraform.io/hashicorp/aws&quot;] (close)</text>
</g>
<!-- [root] provider[&quot;registry.terraform.io/hashicorp/aws&quot;] (close)&#45;&gt;[root] aws_security_group.allow_tls (expand) -->
<g id="edge4" class="edge">
<title>[root] provider[&quot;registry.terraform.io/hashicorp/aws&quot;] (close)&#45;&gt;[root] aws_security_group.allow_tls (expand)</title>
<path fill="none" stroke="black" d="M325.38,-287.7C325.38,-279.98 325.38,-270.71 325.38,-262.11"/>
<polygon fill="black" stroke="black" points="328.88,-262.1 325.38,-252.1 321.88,-262.1 328.88,-262.1"/>
</g>
<!-- [root] root -->
<g id="node6" class="node">
<title>[root] root</title>
<ellipse fill="none" stroke="black" cx="325.38" cy="-378" rx="58.49" ry="18"/>
<text text-anchor="middle" x="325.38" y="-374.3" font-family="Times,serif" font-size="14.00">[root] root</text>
</g>
<!-- [root] root&#45;&gt;[root] provider[&quot;registry.terraform.io/hashicorp/aws&quot;] (close) -->
<g id="edge5" class="edge">
<title>[root] root&#45;&gt;[root] provider[&quot;registry.terraform.io/hashicorp/aws&quot;] (close)</title>
<path fill="none" stroke="black" d="M325.38,-359.7C325.38,-351.98 325.38,-342.71 325.38,-334.11"/>
<polygon fill="black" stroke="black" points="328.88,-334.1 325.38,-324.1 321.88,-334.1 328.88,-334.1"/>
</g>
</g>
</svg>
